<svg id="Capa_1" enable-background="new 0 0 508.927 508.927" height="512" viewBox="0 0 508.927 508.927" width="512" xmlns="http://www.w3.org/2000/svg"><g id="XMLID_1496_"><path id="XMLID_281_" d="m10.995 401.723h114.07v78.347h-114.07z" fill="#ad7042" transform="matrix(.707 -.707 .707 .707 -291.836 177.24)"/><path id="XMLID_481_" d="m24.845 435.16h114.07v39.173h-114.07z" fill="#914d24" transform="matrix(.707 -.707 .707 .707 -297.573 191.09)"/><path id="XMLID_186_" d="m181.797 235.664-121.242 136.897 75.811 75.811 136.898-121.243z" fill="#914d24"/><path id="XMLID_480_" d="m98.461 410.467 37.905 37.905 136.898-121.243-45.733-45.732z" fill="#673416"/><path id="XMLID_329_" d="m309.454 65.229-150.482 167.408 117.318 117.318 167.407-150.482z" fill="#ad7042"/><path id="XMLID_494_" d="m217.631 291.296 58.659 58.659 167.407-150.482-67.121-67.122z" fill="#914d24"/><path id="XMLID_1362_" d="m497.711 93.315c-3.612-20.525-13.337-39.189-28.124-53.975s-33.451-24.511-53.976-28.124c-20.056-3.531-40.447-1.023-58.969 7.25l133.818 133.818c8.274-18.522 10.781-38.913 7.251-58.969z" fill="#cff3fc"/><path id="XMLID_482_" d="m497.711 93.315c-3.612-20.525-13.337-39.189-28.124-53.975l-46.035 46.035 66.909 66.909c8.273-18.522 10.78-38.913 7.25-58.969z" fill="#a8ebfa"/><path id="XMLID_1394_" d="m354.238-4.018h84.932v232.481h-84.932z" fill="#914d24" transform="matrix(.707 -.707 .707 .707 36.839 313.382)"/><path id="XMLID_496_" d="m395.336 95.2h84.932v116.24h-84.932z" fill="#673416" transform="matrix(.707 -.707 .707 .707 19.816 354.479)"/></g></svg>