<svg id="Capa_1" enable-background="new 0 0 493.99 493.99" height="512" viewBox="0 0 493.99 493.99" width="512" xmlns="http://www.w3.org/2000/svg"><g><g><path d="m19.492 492.201-1.537-.594c-7.563-2.92-11.327-11.418-8.407-18.981l38.416-99.497 28.925 11.168-38.416 99.497c-2.92 7.563-11.418 11.327-18.981 8.407z" fill="#bcb6bf"/></g><g><path d="m48.69 418.604-1.967-.759c-9.675-3.736-14.49-14.607-10.755-24.282l49.145-127.286 37.004 14.287-49.145 127.286c-3.735 9.675-14.607 14.49-24.282 10.754z" fill="#c8c3ca"/></g><g><path d="m85.113 266.277-3.892 10.08 10.896 4.207-49.145 127.286c-.77 1.995-1.857 3.77-3.162 5.319 1.871 1.995 4.191 3.625 6.913 4.676l1.967.759c9.675 3.736 20.547-1.08 24.282-10.755l49.145-127.286z" fill="#bcb6bf"/></g><g><path d="m474.498 492.201 1.537-.594c7.563-2.92 11.327-11.418 8.407-18.981l-38.416-99.497-28.925 11.168 38.416 99.497c2.92 7.563 11.418 11.327 18.981 8.407z" fill="#bcb6bf"/></g><g><path d="m445.3 418.604 1.967-.759c9.675-3.736 14.49-14.607 10.755-24.282l-49.145-127.286-37.004 14.287 49.145 127.286c3.735 9.675 14.607 14.49 24.282 10.754z" fill="#c8c3ca"/></g><g><path d="m458.021 393.563-49.145-127.286-26.108 10.08 45.253 117.206c2.685 6.953.936 14.51-3.842 19.606 5.02 5.964 13.441 8.4 21.121 5.435l1.967-.759c9.675-3.736 14.49-14.607 10.754-24.282z" fill="#bcb6bf"/></g><g><path d="m403.433 311.1 2.593-1.001c12.755-4.925 19.103-19.257 14.178-32.012l-46.992-121.71-48.783 18.835 46.992 121.71c4.925 12.755 19.257 19.103 32.012 14.178z" fill="#c8c3ca"/></g><g><path d="m420.204 278.087-46.992-121.71-26.108 10.08 43.1 111.629c4.373 11.326-.147 23.889-10.144 30.012 6.557 4.708 15.28 6.126 23.373 3.001l2.593-1.001c12.755-4.923 19.103-19.256 14.178-32.011z" fill="#bcb6bf"/></g><g><path d="m360.066 199.678 3.197-1.234c15.727-6.072 23.554-23.744 17.482-39.471l-44.914-116.328-60.149 23.224 44.914 116.328c6.072 15.727 23.743 23.553 39.47 17.481z" fill="#c8c3ca"/></g><g><path d="m380.745 158.973-44.914-116.328-26.108 10.08 41.022 106.248c5.922 15.339-1.381 32.522-16.336 38.995 7.61 4.164 16.931 5.079 25.657 1.71l3.197-1.234c15.727-6.072 23.554-23.744 17.482-39.471z" fill="#bcb6bf"/></g><g><path d="m90.557 311.1-2.593-1.001c-12.755-4.925-19.103-19.257-14.178-32.012l46.992-121.71 48.783 18.835-46.992 121.71c-4.925 12.755-19.257 19.103-32.012 14.178z" fill="#c8c3ca"/></g><g><path d="m120.777 156.378-3.892 10.08 22.675 8.755-46.991 121.709c-1.8 4.663-4.861 8.464-8.639 11.177 1.261.773 2.605 1.448 4.034 2l2.593 1.001c12.755 4.925 27.087-1.423 32.012-14.178l46.992-121.709z" fill="#bcb6bf"/></g><g><path d="m133.924 199.678-3.197-1.234c-15.727-6.072-23.554-23.744-17.481-39.471l44.914-116.329 60.149 23.224-44.914 116.328c-6.073 15.728-23.745 23.554-39.471 17.482z" fill="#c8c3ca"/></g><g><path d="m158.159 42.645-3.892 10.08 34.041 13.143-44.914 116.329c-2.703 7.001-7.708 12.431-13.813 15.771.378.164.757.326 1.145.476l3.197 1.234c15.727 6.072 33.398-1.755 39.471-17.481l44.914-116.329z" fill="#bcb6bf"/></g><g><path d="m242.46 493.988-3.265-.059c-6.632-.119-11.912-5.592-11.793-12.224l3.003-163.5 27.282.489-3.003 163.5c-.119 6.633-5.592 11.913-12.224 11.794z" fill="#bcb6bf"/></g><g><path d="m245.372 364.579-4.304-.077c-8.743-.157-15.704-7.372-15.547-16.115l2.935-163.677 35.966.645-2.935 163.677c-.157 8.743-7.372 15.704-16.115 15.547z" fill="#bcb6bf"/></g><g><path d="m248.352 226.318-5.307-.095c-10.78-.193-19.363-9.089-19.169-19.869l2.869-159.989 44.346.795-2.869 159.989c-.194 10.78-9.089 19.362-19.87 19.169z" fill="#c8c3ca"/></g><g><path d="m226.744 46.364-.01.538 14.356.257-2.869 159.989c-.107 5.939-2.863 11.201-7.112 14.706 3.267 2.653 7.401 4.287 11.935 4.369l5.307.095c10.78.193 19.676-8.389 19.869-19.169l2.87-159.989z" fill="#bcb6bf"/></g><g><path d="m283.139 69.823-38.31-10-34.269 10v45.639c0 8.436 6.839 15.275 15.275 15.275h42.03c8.436 0 15.275-6.839 15.275-15.275v-45.639z" fill="#766d78"/></g><g><path d="m253.139 69.823v45.639c0 8.436-6.839 15.275-15.275 15.275h30c8.436 0 15.275-6.839 15.275-15.275v-45.639l-15.375-10z" fill="#655e67"/></g><g><path d="m408.958 85.519c-4.142 0-7.5-3.358-7.5-7.5v-27.586c0-5.833-4.745-10.578-10.578-10.578h-44.01c-4.142 0-7.5-3.358-7.5-7.5s3.358-7.5 7.5-7.5h44.009c14.104 0 25.578 11.474 25.578 25.578v27.585c.001 4.143-3.357 7.501-7.499 7.501z" fill="#766d78"/></g><g><path d="m346.1 69.823h-198.501v-52.302c0-9.676 7.844-17.521 17.521-17.521h163.458c9.677 0 17.521 7.845 17.521 17.521v52.302z" fill="#766d78"/></g><g><path d="m328.578 0h-30c9.677 0 17.521 7.845 17.521 17.521v52.302h30v-52.302c.001-9.676-7.844-17.521-17.521-17.521z" fill="#655e67"/></g><g><path d="m266.85 45.132h-49.056c-4.142 0-7.5-3.358-7.5-7.5s3.358-7.5 7.5-7.5h49.056c4.142 0 7.5 3.358 7.5 7.5s-3.358 7.5-7.5 7.5z" fill="#655e67"/></g><g><ellipse cx="410.163" cy="101.035" fill="#c8c3ca" rx="23.569" ry="29.491"/></g></g></svg>